<svg xmlns="http://www.w3.org/2000/svg" xmlns:xlink="http://www.w3.org/1999/xlink" fill="none" version="1.1" width="60" height="60" viewBox="0 0 60 60"><defs><clipPath id="master_svg0_104_04683"><rect x="0" y="0" width="60" height="60" rx="8"/></clipPath><clipPath id="master_svg1_104_04684"><rect x="14" y="14" width="32" height="32" rx="0"/></clipPath></defs><g clip-path="url(#master_svg0_104_04683)"><rect x="0" y="0" width="60" height="60" rx="8" fill="#F6F6F6" fill-opacity="1"/><g clip-path="url(#master_svg1_104_04684)"><g><path d="M36.91103203125,19.333343505859375L17.65519203125,19.333343505859375C16.61078103125,19.333343505859375,15.77783203125,20.094701505859376,15.77783203125,21.033403505859376L15.77783203125,38.887043505859374C15.77783203125,39.862443505859375,16.63656903125,40.657443505859376,17.68613203125,40.657443505859376L37.05803203125,40.657443505859376C37.97343203125,40.761443505859376,38.79093203125,39.97254350585938,38.88893203125,38.887043505859374L38.88893203125,31.464143505859376L41.97323203125,34.58044350585938Q42.065232031250005,34.673443505859375,42.16993203125,34.75184350585938Q42.27463203125,34.83024350585937,42.38973203125,34.892443505859376Q42.50473203125,34.95464350585937,42.627732031250005,34.999243505859376Q42.750732031249996,35.043743505859375,42.87883203125,35.06974350585938Q43.00703203125,35.09584350585938,43.13763203125,35.102643505859376Q43.26823203125,35.10954350585938,43.39853203125,35.09714350585938Q43.52873203125,35.08474350585938,43.65563203125,35.053343505859374Q43.78263203125,35.021943505859376,43.90363203125,34.972243505859375Q44.024532031250004,34.92244350585938,44.13693203125,34.85544350585938Q44.24923203125,34.78844350585938,44.35053203125,34.705743505859374Q44.45173203125,34.622943505859375,44.53973203125,34.52614350585937Q44.627732031250005,34.42934350585938,44.70053203125,34.320743505859376Q44.77333203125,34.21204350585938,44.82943203125,34.093843505859375Q44.885432031250005,33.97574350585938,44.923532031250005,33.85054350585938Q44.96153203125,33.725443505859374,44.98073203125,33.59604350585938Q45.00003203125,33.46664350585937,45.00003203125,33.33584350585937L45.00003203125,25.775473505859374Q45.00003203125,25.644683505859376,44.98073203125,25.515303505859375Q44.96153203125,25.385933505859377,44.923532031250005,25.260793505859375Q44.885432031250005,25.135653505859374,44.82943203125,25.017473505859375Q44.77333203125,24.899293505859376,44.70053203125,24.790633505859375Q44.627732031250005,24.681973505859375,44.53973203125,24.585203505859376Q44.45173203125,24.488433505859376,44.35053203125,24.405653505859377Q44.24923203125,24.322873505859377,44.13693203125,24.255883505859373Q44.024532031250004,24.188893505859376,43.90363203125,24.139153505859376Q43.78263203125,24.089413505859376,43.65563203125,24.058003505859375Q43.52873203125,24.026583505859374,43.39853203125,24.014183505859375Q43.26823203125,24.001783505859375,43.13763203125,24.008663505859374Q43.00703203125,24.015543505859377,42.87883203125,24.041553505859376Q42.750732031249996,24.067573505859375,42.627732031250005,24.112153505859375Q42.50473203125,24.156733505859375,42.38973203125,24.218903505859373Q42.27463203125,24.281083505859375,42.16993203125,24.359503505859376Q42.065232031250005,24.437923505859374,41.97323203125,24.530883505859375L38.88893203125,27.647153505859375L38.88893203125,21.033403505859376C38.88893203125,20.097640505859374,38.004832031250004,19.338113915859374,36.91103203125,19.333343505859375ZM33.006732031249996,27.000333505859373C31.90303203125,27.003043505859374,31.002732031249998,26.110843505859375,31.00003203125,25.007113505859376L31.00003203125,25.001693505859375C31.00003203125,23.897963505859373,31.89223203125,23.005763505859374,32.99323203125,23.000343505859377C34.09693203125,22.997633505859376,34.99733203125,23.889833505859375,35.00003203125,24.993553505859374C35.002732031250005,26.097283505859373,34.11053203125,26.997623505859373,33.006732031249996,27.000333505859373Z" fill-rule="evenodd" fill="#3D4957" fill-opacity="1"/></g></g></g></svg>